<svg id="Layer_1" data-name="Layer 1" xmlns="http://www.w3.org/2000/svg" viewBox="0 0 16 16"><defs><style>.cls-1{fill-rule:evenodd;}</style></defs><g id="svgg"><path id="path0" class="cls-1" d="M7.67.13l-.15,0a1.66,1.66,0,0,0-.4.19L7,.44a.44.44,0,0,0-.11.12s-.06.1-.08.11a1.38,1.38,0,0,0-.09,1.45,1.31,1.31,0,0,0,.3.35,1,1,0,0,0,.4.25l.2.06a1.27,1.27,0,0,0,.55,0,3,3,0,0,0,.49-.2s.09-.08.14-.13a1.44,1.44,0,0,0,.28-.34l0-.08a1.68,1.68,0,0,0,.06-1A1.92,1.92,0,0,0,9.05.73a0,0,0,0,1,0,0A1.15,1.15,0,0,0,8.6.29L8.43.2A1.66,1.66,0,0,0,7.67.13M3.43.93,3.32,1v.15a.49.49,0,0,0,0,.25.63.63,0,0,1,0,.14.57.57,0,0,0,.07.16.54.54,0,0,1,.08.15,2.78,2.78,0,0,0,.23.38.88.88,0,0,1,.1.17s0,.08.08.12a1.18,1.18,0,0,1,.13.18l.13.19L4.27,3a.43.43,0,0,0,.06.09l.1.12a.53.53,0,0,0,.1.14.78.78,0,0,1,.08.1.47.47,0,0,0,.1.13.47.47,0,0,1,.1.13.85.85,0,0,0,.13.15c.06.08.12.14.12.15a1.63,1.63,0,0,0,.24.29,1,1,0,0,1,.11.15l.24.28L5.87,5l.17.2a3.15,3.15,0,0,0,.25.28l.23.27c.1.13.29.34.53.6l.16.19s.23.27.48.53.18.18.22.18a2,2,0,0,0,.47-.46.3.3,0,0,1,.11-.12.45.45,0,0,0,.12-.12,1.39,1.39,0,0,1,.2-.22A3.08,3.08,0,0,0,9,6l.15-.16.17-.19a.4.4,0,0,1,.13-.15l.06-.06.12-.15a.64.64,0,0,0,.11-.13l.09-.11a2.15,2.15,0,0,0,.19-.22l.17-.19.11-.14a.49.49,0,0,1,.08-.1.88.88,0,0,0,.11-.13c.2-.25.24-.3.44-.53a.8.8,0,0,0,.15-.2l.13-.16a1.1,1.1,0,0,0,.14-.18L11.52,3l.15-.2.1-.15.1-.14L12,2.33a1.11,1.11,0,0,0,.08-.12.18.18,0,0,1,.05-.07A.54.54,0,0,0,12.21,2l.11-.2c.38-.56.25-1.11-.19-.86a1.39,1.39,0,0,0-.34.23l-.11.1a1,1,0,0,0-.25.24,2.61,2.61,0,0,1-.27.3,5.2,5.2,0,0,0-.53.57,10.5,10.5,0,0,1-.94.92l-.2.18a1.78,1.78,0,0,1-.33.24l-.24.15a2.29,2.29,0,0,1-1,.34A2,2,0,0,1,7.14,4,.38.38,0,0,0,7,4a1.81,1.81,0,0,1-.29-.19l-.14-.09a2.47,2.47,0,0,1-.29-.22A3.4,3.4,0,0,0,6,3.19,1.66,1.66,0,0,1,5.82,3s-.05-.07-.07-.07a3.74,3.74,0,0,1-.48-.49S5.09,2.23,5,2.09a2.66,2.66,0,0,1-.25-.27s-.14-.16-.31-.34c-.54-.54-.75-.66-1-.55M1,3.5a.22.22,0,0,0-.13.2,1.83,1.83,0,0,0,.53.79c.2.17.39.35.67.61l.33.31a13.64,13.64,0,0,1,1.07,1.1.24.24,0,0,0,.08.09s.3.43.37.56L4,7.34a.84.84,0,0,1,.1.25.56.56,0,0,0,0,.15A1.57,1.57,0,0,1,4,8.93l-.24.36a2.19,2.19,0,0,1-.29.4.3.3,0,0,0-.07.09s-.93,1-1,1a2.65,2.65,0,0,0-.32.29l-.27.24a6,6,0,0,0-.48.46l-.09.12c-.39.42-.44.57-.25.77s.47,0,.64-.1l.1-.05.08,0a1.27,1.27,0,0,1,.27-.17l.08,0,.11-.07.12-.07L2.59,12l.26-.19a2.88,2.88,0,0,1,.28-.21,4.17,4.17,0,0,0,.48-.37,1.25,1.25,0,0,1,.19-.15,3.89,3.89,0,0,0,.35-.28.74.74,0,0,1,.13-.12,2.31,2.31,0,0,0,.32-.25.12.12,0,0,1,.06-.06l.16-.14A.63.63,0,0,1,5,10.1.33.33,0,0,0,5.08,10l.18-.16.38-.33a.25.25,0,0,1,.1-.08,1.18,1.18,0,0,0,.18-.16L6.21,9l.3-.27.4-.36c.36-.33.37-.29-.27-.86C6.43,7.35,6.28,7.21,6,7l-.19-.16a2.06,2.06,0,0,1-.25-.21l-.32-.3-.21-.18L4.94,6,4.8,5.92l-.36-.31-.18-.14L4.1,5.33A.21.21,0,0,0,4,5.26L4,5.22a.82.82,0,0,0-.16-.14l-.2-.14a.69.69,0,0,0-.13-.11s-.06,0-.06-.06l-.08,0-.07,0a1.79,1.79,0,0,0-.33-.24l-.1-.09-.11-.08s0,0,0,0a.38.38,0,0,0-.12-.08l-.15-.1-.25-.16-.27-.17-.13-.07A1,1,0,0,0,1,3.5m13.6,0-.21.09-.12.06a2.74,2.74,0,0,0-.33.19l-.07,0-.13.08-.21.15-.12.09a.35.35,0,0,1-.09.07l-.18.12-.2.14-.11.07a.05.05,0,0,1,0,0,.47.47,0,0,0-.13.1.47.47,0,0,1-.13.1l-.14.12L12.26,5a.63.63,0,0,0-.15.12.63.63,0,0,1-.15.12l-.12.09a.64.64,0,0,1-.15.12l-.14.12-.19.16-.56.48-.13.11-.16.14a2.28,2.28,0,0,1-.37.32L10,7l-.17.15-.15.13c-.2.2-.37.35-.58.53s-.24.22-.24.3a.88.88,0,0,0,.25.26,1.8,1.8,0,0,1,.22.2l.31.29c.06,0,.2.17.33.29a1.63,1.63,0,0,0,.24.21l.22.19a3.12,3.12,0,0,0,.27.24l.16.14.12.09a1.35,1.35,0,0,1,.22.19l.26.24a1.5,1.5,0,0,1,.18.14.47.47,0,0,0,.13.1.52.52,0,0,1,.13.12.56.56,0,0,0,.15.11.25.25,0,0,1,.1.08l.16.12.14.12.2.15a.8.8,0,0,1,.16.13l.16.12a2.21,2.21,0,0,1,.29.22l.11.08.21.14.29.19.17.11a.2.2,0,0,0,.11.06l.09,0,.12.07a.31.31,0,0,1,.12.07c.19.16.64.11.68-.07s-.52-1-1-1.31L13.84,11l-.4-.38c-.17-.15-.23-.22-.35-.34l-.17-.16-.21-.22a2,2,0,0,0-.15-.19,1.12,1.12,0,0,1-.17-.21.7.7,0,0,0-.12-.15.27.27,0,0,1-.06-.1.88.88,0,0,0-.1-.18,1.38,1.38,0,0,1-.23-.47A1.81,1.81,0,0,1,12,7.22a1.26,1.26,0,0,0,.2-.33s0,0,0-.06a.64.64,0,0,0,.13-.16A4.08,4.08,0,0,1,12.94,6l.35-.36.16-.14L14,5.07l.17-.16.24-.22.23-.2a3.88,3.88,0,0,0,.26-.31L15,4c.16-.16.17-.44,0-.53a.75.75,0,0,0-.4,0M1.3,6.74l-.11,0a.87.87,0,0,0-.4.14L.63,7a1.85,1.85,0,0,0-.31.33.4.4,0,0,1-.07.12.88.88,0,0,0,0,.1.79.79,0,0,1-.05.15,1.39,1.39,0,0,0,.11,1,.41.41,0,0,1,0,.11,1.67,1.67,0,0,0,.31.34l.09,0a1.18,1.18,0,0,0,.37.19,1.68,1.68,0,0,0,.86,0A3.17,3.17,0,0,0,2.43,9a1.86,1.86,0,0,0,.31-.52.75.75,0,0,1,0-.15,1,1,0,0,0,0-.52,1.94,1.94,0,0,1,0-.2c0-.09,0-.14-.2-.39A1,1,0,0,0,2.29,7l-.17-.12a1.12,1.12,0,0,0-.47-.17,1,1,0,0,0-.35,0m13.13,0-.12,0a1.1,1.1,0,0,0-.57.24l-.12.1a2,2,0,0,0-.31.44.84.84,0,0,1-.06.14,1.56,1.56,0,0,0,.16,1.1,1.34,1.34,0,0,0,1.41.6l.14,0A1.36,1.36,0,0,0,15.53,9a1.14,1.14,0,0,0,.36-.84,1.31,1.31,0,0,0-.72-1.27L15,6.8l-.14,0a.85.85,0,0,0-.38,0M7.76,8.93c-.08.1-.33.37-.62.67L7,9.79,6.82,10a.64.64,0,0,0-.11.13l-.08.1-.13.14a.94.94,0,0,1-.14.16c-.05.06-.13.14-.17.2s-.07.1-.08.1l-.06.06a1.26,1.26,0,0,1-.18.21c-.15.16-.24.27-.34.39s-.07.1-.08.1,0,0-.08.09a.85.85,0,0,1-.1.13.54.54,0,0,0-.11.13.57.57,0,0,1-.11.14L5,12.16a.53.53,0,0,1-.12.15,1.92,1.92,0,0,0-.16.21l-.19.25a.79.79,0,0,0-.11.15.45.45,0,0,1-.09.11.74.74,0,0,0-.12.16L4,13.38a1,1,0,0,1-.11.16.76.76,0,0,1-.11.16,2,2,0,0,0-.1.18.5.5,0,0,1-.08.12l0,.08a.28.28,0,0,1-.06.1.56.56,0,0,0-.07.13.34.34,0,0,1,0,.08.88.88,0,0,0-.11.61c.09.22.42.13.79-.21.16-.15.18-.17.5-.51.5-.53.57-.61.66-.72s.93-.93,1-1l.15-.12A3.09,3.09,0,0,1,7.18,12l.12-.06.09,0,.1,0A2,2,0,0,1,8,11.8a.23.23,0,0,1,.17,0l.19,0a.34.34,0,0,1,.24.09l.07,0a.31.31,0,0,1,.12,0l.1.06a1.26,1.26,0,0,1,.3.18l.06,0,.12.1a1,1,0,0,0,.16.13,21.63,21.63,0,0,1,1.57,1.59c.12.14.37.42.41.45a2.57,2.57,0,0,0,.64.49c.17,0,.32,0,.37-.07a.66.66,0,0,0,0-.46.3.3,0,0,1-.05-.1,1.46,1.46,0,0,0-.11-.21L12.21,14l-.07-.12A.61.61,0,0,1,12,13.7a.8.8,0,0,0-.14-.2l0-.07,0-.07a.15.15,0,0,1,0-.06l-.06-.07a2.52,2.52,0,0,1-.28-.39l0-.06a.79.79,0,0,1-.13-.15,1.53,1.53,0,0,0-.15-.19.31.31,0,0,1-.07-.09l-.13-.17a.47.47,0,0,1-.1-.13,1.54,1.54,0,0,0-.12-.14l-.11-.14-.1-.14-.17-.19-.16-.18L10,11.1l-.27-.34-.27-.29c-.19-.21-.32-.36-.4-.47s-.39-.44-.9-1c-.23-.25-.27-.25-.4-.09m-.13,4.31-.2.06a1.51,1.51,0,0,0-.65.54A1.43,1.43,0,0,0,6.65,15a.34.34,0,0,1,0,.1c0,.19.44.64.7.72l.11.05a1.5,1.5,0,0,0,1,0,.26.26,0,0,1,.12,0c.07,0,.11-.05.24-.18a1.32,1.32,0,0,0,.32-.41A.57.57,0,0,1,9.2,15,1.5,1.5,0,0,0,9,13.77a1.46,1.46,0,0,0-.64-.47l-.19-.06a1.82,1.82,0,0,0-.57,0"/></g></svg>